<svg width="13" height="10" viewBox="0 0 13 10" fill="none" xmlns="http://www.w3.org/2000/svg">
<path d="M4.66672 6.46494C4.74099 6.35576 4.82167 6.25096 4.90793 6.15097C6.79726 4.25764 8.68873 2.36475 10.5827 0.472751C10.7847 0.233843 11.0648 0.0745486 11.3733 0.0225561C11.6817 -0.0294364 11.9987 0.0295453 12.2678 0.18906C12.4237 0.281448 12.5586 0.405267 12.6638 0.55283C12.7689 0.700392 12.8422 0.868502 12.8786 1.04599C12.9151 1.22349 12.9137 1.40654 12.8752 1.58359C12.8367 1.76065 12.7619 1.9275 12.655 2.07383C12.5706 2.18457 12.4776 2.28887 12.3777 2.38584L5.73996 9.025C5.61367 9.18892 5.45152 9.32184 5.26584 9.41318C5.08016 9.50452 4.8756 9.55185 4.66867 9.55185C4.46174 9.55185 4.25767 9.50452 4.07199 9.41318C3.88631 9.32184 3.72417 9.18892 3.59787 9.025C2.55587 7.985 1.51482 6.94333 0.474824 5.9C0.258138 5.71413 0.106611 5.46377 0.042207 5.18564C-0.0221967 4.90752 0.00398409 4.6163 0.116914 4.3541C0.204336 4.15517 0.339993 3.98111 0.511934 3.84824C0.683874 3.71537 0.886738 3.62777 1.10129 3.59336C1.31584 3.55894 1.53558 3.57904 1.74045 3.65146C1.94532 3.72388 2.1284 3.8463 2.27365 4.00791C3.00965 4.72591 3.73176 5.46004 4.45676 6.19004C4.53241 6.27724 4.60251 6.36899 4.66672 6.46494Z" fill="#501755"/>
</svg>
