<svg width="13" height="14" viewBox="0 0 13 14" fill="none" xmlns="http://www.w3.org/2000/svg">
<path d="M12.5288 5.50989V1.59989L11.0688 3.05989C8.76875 0.749893 5.02875 0.749893 2.72875 3.05989C0.428752 5.36989 0.418752 9.09989 2.72875 11.3999C5.03875 13.6999 8.76875 13.7099 11.0688 11.3999C11.4388 11.0299 11.7588 10.6099 12.0288 10.1499L10.8288 9.45989C9.59875 11.6299 6.83875 12.3799 4.66875 11.1499C2.49875 9.91989 1.73875 7.15989 2.97875 4.99989C4.21875 2.83989 6.96875 2.07989 9.13875 3.30989C9.48875 3.50989 9.81875 3.75989 10.0988 4.03989L8.62875 5.50989H12.5288Z" fill="#116EEE" stroke="#116EEE" stroke-width="0.5"/>
</svg>
