<svg width="91" height="109" viewBox="0 0 91 109" fill="none" xmlns="http://www.w3.org/2000/svg">
<path d="M27.3562 61.3548C23.194 56.9153 20.8888 51.0511 20.9133 44.9657C20.9216 40.2059 22.3416 35.5558 24.9936 31.6034C27.6456 27.6509 31.4107 24.5737 35.812 22.7616C40.2133 20.9494 45.0531 20.4838 49.7192 21.4232C54.3853 22.3626 58.6679 24.6649 62.0251 28.0389C65.3823 31.413 67.6635 35.707 68.5795 40.3778C69.4956 45.0486 69.0054 49.886 67.1713 54.2782C65.3373 58.6704 62.2417 62.4198 58.2761 65.0521C54.3104 67.6844 49.653 69.0812 44.8933 69.0658L46.3703 61.6L27.3562 61.3548Z" fill="#FFC301"/>
<path d="M82.2965 41.9188C83.7965 41.9188 85.2902 41.9088 86.7872 41.9188C87.2012 41.901 87.615 41.9667 88.003 42.1122C88.391 42.2576 88.7456 42.48 89.046 42.7655C89.3463 43.051 89.5861 43.3941 89.751 43.7743C89.9159 44.1544 90.0027 44.5635 90.0059 44.9779C90.0091 45.3923 89.9286 45.8032 89.7696 46.1859C89.6106 46.5686 89.3765 46.9153 89.0806 47.2054C88.7848 47.4955 88.4332 47.7234 88.0474 47.8748C87.6617 48.0263 87.2497 48.0981 86.8355 48.0868C83.7835 48.1101 80.7306 48.1101 77.6773 48.0868C77.2616 48.1006 76.8475 48.0304 76.4595 47.8802C76.0716 47.73 75.718 47.5029 75.42 47.2127C75.1219 46.9226 74.8857 46.5755 74.7252 46.1917C74.5647 45.808 74.4832 45.3958 74.4859 44.9798C74.4886 44.5639 74.5753 44.1525 74.7408 43.7708C74.9063 43.3892 75.147 43.0449 75.4488 42.7586C75.7506 42.4723 76.1068 42.25 76.4966 42.1048C76.8865 41.9597 77.3018 41.8947 77.7174 41.9139C78.4804 41.9049 79.2434 41.9139 80.0074 41.9139L82.2965 41.9188Z" fill="#FFC301"/>
<path d="M48.0542 7.76827C48.0542 9.29527 48.0692 10.8219 48.0542 12.3479C48.0553 12.7526 47.977 13.1537 47.8232 13.528C47.6694 13.9024 47.4435 14.243 47.1582 14.53C46.8728 14.817 46.5336 15.0449 46.1601 15.2009C45.7867 15.3569 45.3861 15.438 44.9814 15.4392C44.5767 15.4403 44.1756 15.3615 43.8012 15.2077C43.4269 15.0539 43.0863 14.828 42.7993 14.5427C42.5123 14.2573 42.2844 13.9181 42.1284 13.5446C41.9724 13.1712 41.8913 12.7707 41.8901 12.3659C41.8641 9.28326 41.8641 6.20085 41.8901 3.11885C41.8854 2.70797 41.9631 2.30065 42.1181 1.92012C42.2732 1.53959 42.5029 1.1936 42.7934 0.903032C43.084 0.612459 43.4295 0.38284 43.81 0.227739C44.1905 0.0726376 44.5984 -0.00446496 45.0092 0.000199667C45.4201 0.00486429 45.8257 0.0913828 46.2026 0.255082C46.5795 0.418782 46.9202 0.656231 47.2041 0.953325C47.4879 1.25042 47.7095 1.60111 47.8559 1.98506C48.0023 2.36902 48.0702 2.77849 48.0561 3.18916C48.0661 4.71416 48.0552 6.24127 48.0542 7.76827Z" fill="#FFC301"/>
<path d="M7.73643 41.9189C9.26243 41.9189 10.7883 41.9059 12.3143 41.9189C12.7192 41.9163 13.1207 41.9938 13.4957 42.1464C13.8707 42.299 14.212 42.5236 14.5001 42.808C14.7882 43.0925 15.0174 43.4311 15.1747 43.8041C15.332 44.1772 15.4143 44.5775 15.4168 44.9823C15.4194 45.3872 15.3421 45.789 15.1896 46.164C15.037 46.539 14.8122 46.8803 14.5277 47.1684C14.2432 47.4565 13.9047 47.6854 13.5316 47.8427C13.1585 48 12.7582 48.0823 12.3534 48.0849C9.27204 48.1135 6.19081 48.1135 3.10947 48.0849C2.7003 48.0882 2.29432 48.0104 1.91562 47.8554C1.53693 47.7004 1.19304 47.4714 0.903662 47.182C0.614282 46.8927 0.385191 46.549 0.230078 46.1703C0.0749651 45.7917 -0.00315367 45.3857 9.74587e-05 44.9765C0.00334859 44.5673 0.0880109 44.1632 0.249121 43.787C0.410231 43.4109 0.644633 43.0702 0.938574 42.7856C1.23251 42.5009 1.58017 42.2778 1.96128 42.1288C2.34239 41.9799 2.74923 41.908 3.1583 41.9179C4.6833 41.9049 6.20943 41.9189 7.73643 41.9189Z" fill="#FFC301"/>
<path d="M68.1294 25.1788C67.5165 25.1511 66.923 24.9562 66.4131 24.6149C65.9033 24.2735 65.4965 23.7989 65.2374 23.2428C64.9538 22.7169 64.8452 22.1143 64.9278 21.5226C65.0103 20.9309 65.2797 20.3809 65.6963 19.9527C67.963 17.6047 70.2702 15.2954 72.6182 13.024C73.2005 12.5197 73.9518 12.2533 74.7217 12.2779C75.4917 12.3026 76.2241 12.6163 76.773 13.1568C77.3219 13.6974 77.6467 14.4249 77.6832 15.1944C77.7196 15.9639 77.4647 16.7187 76.9693 17.3087C74.6943 19.6887 72.3546 22.0091 69.9786 24.2911C69.412 24.6812 68.7881 24.9805 68.1294 25.1788Z" fill="#FFC301"/>
<path d="M64.7896 68.1109C64.8273 67.5141 65.023 66.938 65.3569 66.4419C65.6908 65.9458 66.1508 65.5473 66.6895 65.2876C67.211 64.9957 67.8124 64.8789 68.4053 64.9541C68.9982 65.0294 69.5513 65.2926 69.9834 65.7056C72.3547 67.9909 74.682 70.3218 76.9653 72.6978C77.4547 73.2815 77.7088 74.0265 77.6777 74.7876C77.6466 75.5487 77.3327 76.2712 76.7974 76.813C76.262 77.3549 75.5434 77.6775 74.7827 77.7178C74.0221 77.7581 73.2742 77.5131 72.6846 77.0308C70.2846 74.7368 67.9406 72.3737 65.6436 69.9727C65.2601 69.4023 64.9717 68.7736 64.7896 68.1109Z" fill="#FFC301"/>
<path d="M25.1503 21.8379C25.1194 22.4349 24.9315 23.0132 24.6054 23.5142C24.2793 24.0152 23.8267 24.4211 23.2934 24.691C22.7775 24.9948 22.1767 25.1232 21.5817 25.0567C20.9867 24.9902 20.4294 24.7321 19.9933 24.3218C17.6133 22.0458 15.2837 19.7179 13.0043 17.3379C12.5219 16.748 12.2768 15.9994 12.3173 15.2383C12.3578 14.4773 12.6808 13.7586 13.2231 13.2232C13.7654 12.6878 14.488 12.3741 15.2494 12.3433C16.0109 12.3126 16.7565 12.5672 17.3403 13.0572C19.6993 15.3132 21.9983 17.6328 24.2553 19.9908C24.6469 20.5567 24.9488 21.1799 25.1503 21.8379Z" fill="#FFC301"/>
<path d="M31.551 85.7563C26.8363 85.7563 22.1216 85.7563 17.4069 85.7563C13.543 85.7015 9.83497 84.2241 6.9919 81.6069C4.14884 78.9897 2.37034 75.4164 1.99654 71.5703C1.62274 67.7241 2.67987 63.8749 4.96578 60.7592C7.25169 57.6436 10.6059 55.4799 14.3869 54.6821C14.5409 54.6331 14.6832 54.5528 14.8046 54.4462C14.9261 54.3397 15.0243 54.2097 15.093 54.0634C16.2682 50.8679 18.461 48.147 21.3339 46.3198C24.2069 44.4925 27.6005 43.6598 30.9929 43.9501C37.2019 44.4661 41.6418 47.7332 44.2238 53.4262C44.3015 53.7145 44.4792 53.9658 44.7251 54.1352C44.9709 54.3046 45.2688 54.381 45.5659 54.351C49.5527 54.3563 53.3877 55.8808 56.29 58.6142C59.1923 61.3476 60.9439 65.0845 61.188 69.0639C61.432 73.0433 60.1503 76.9661 57.6037 80.0336C55.0572 83.1012 51.4372 85.0827 47.4809 85.5751C44.9749 85.8411 42.4269 85.7304 39.8979 85.7534C37.1139 85.7784 34.3308 85.7582 31.5468 85.7582L31.551 85.7563Z" fill="#003682"/>
<path d="M39.9043 67.1366C39.7842 67.0984 39.6612 67.0703 39.5364 67.0526C36.2724 67.0526 33.0084 67.0315 29.7444 67.0785C29.5651 67.1214 29.3979 67.2043 29.2549 67.3207C29.1119 67.437 28.9969 67.5836 28.9185 67.7503C25.9258 74.3557 22.952 80.97 19.9973 87.5926C19.8973 87.8246 19.8134 88.0684 19.6724 88.4354H27.9053L27.2573 90.0165L19.8904 107.988L20.0374 108.065L33.2063 90.0228L38.5164 82.7484H30.3694L39.9043 67.1366Z" fill="#FFC301"/>
</svg>
