<svg width="76" height="49" viewBox="0 0 76 49" fill="none" xmlns="http://www.w3.org/2000/svg">
<path d="M60.4683 9.70955C60.1923 9.7376 59.915 9.66671 59.6865 9.50935C59.4581 9.35199 59.2933 9.11851 59.2212 8.85066C58.2678 6.62666 56.7765 4.6741 54.8818 3.16902C52.9871 1.66394 50.7482 0.653173 48.3662 0.227612C45.9842 -0.197949 43.5335 -0.024888 41.2349 0.73103C38.9362 1.48695 36.8618 2.80238 35.1973 4.55867C39.4136 6.28589 42.8355 9.52072 44.7969 13.6334C47.2884 13.7943 49.724 14.4459 51.9629 15.5509C54.2018 16.6559 56.2001 18.1925 57.8433 20.0723C59.4865 21.9521 60.7424 24.1384 61.5381 26.505C62.3338 28.8715 62.6537 31.3717 62.48 33.8624C62.3733 35.5456 62.0369 37.2064 61.48 38.7984C61.738 38.7784 61.995 38.7565 62.251 38.7305C65.9257 38.2702 69.287 36.4276 71.6514 33.5772C74.0158 30.7268 75.2056 27.0828 74.979 23.3863C74.7524 19.6898 73.1265 16.2185 70.4316 13.6783C67.7368 11.1381 64.1756 9.71952 60.4722 9.7115L60.4683 9.70955Z" fill="#003682"/>
<path d="M43.6059 16.8675C43.3091 16.8974 43.0116 16.8209 42.766 16.6516C42.5204 16.4824 42.3427 16.2311 42.265 15.9431C41.4502 13.94 40.2178 12.1336 38.6498 10.6443C37.0819 9.155 35.2146 8.01724 33.1723 7.30642C31.8345 6.86233 30.4472 6.5826 29.0419 6.47342C25.65 6.18093 22.2564 7.0118 19.3832 8.83816C16.51 10.6645 14.3168 13.385 13.142 16.5803C13.0731 16.7264 12.9749 16.8568 12.8534 16.9632C12.7319 17.0695 12.5898 17.1496 12.4359 17.1985C8.6617 18.0007 5.31529 20.1644 3.03506 23.2771C0.754832 26.3898 -0.29959 30.2335 0.0736355 34.074C0.446861 37.9145 2.2216 41.483 5.0585 44.0984C7.8954 46.7138 11.5959 48.1927 15.454 48.2532C20.166 48.2532 24.8782 48.2532 29.5902 48.2532C32.3722 48.2532 35.1539 48.2733 37.9359 48.2483C40.4639 48.2253 43.0101 48.3366 45.5141 48.0706C48.2006 47.7555 50.7581 46.7427 52.932 45.1331C55.106 43.5235 56.8208 41.3729 57.9062 38.8953C58.6441 37.2376 59.0815 35.4619 59.1981 33.6511C59.3495 31.5084 59.059 29.3576 58.3446 27.3318C57.6302 25.306 56.5073 23.4485 55.0453 21.8748C53.5833 20.301 51.8134 19.0448 49.8456 18.1834C47.8778 17.322 45.7539 16.874 43.6059 16.8675Z" fill="#003682"/>
</svg>
