<svg width="70" height="73" viewBox="0 0 70 73" fill="none" xmlns="http://www.w3.org/2000/svg">
<g clip-path="url(#clip0)">
<path d="M36.2305 16.8617C36.236 13.5212 37.2327 10.2578 39.0938 7.48379C40.9548 4.70974 43.5967 2.54972 46.6855 1.27774C49.7744 0.00575686 53.171 -0.321304 56.4458 0.337798C59.7206 0.9969 62.7267 2.61249 65.083 4.98038C67.4393 7.34826 69.0401 10.362 69.6831 13.64C70.3261 16.9181 69.982 20.3134 68.6948 23.3959C67.4077 26.4784 65.2353 29.1096 62.4521 30.9569C59.669 32.8043 56.4 33.7847 53.0596 33.7738C48.5896 33.7487 44.3112 31.9566 41.1582 28.788C38.0052 25.6194 36.2336 21.3318 36.2305 16.8617Z" fill="#FFC301"/>
<path d="M31.5791 51.283C26.5511 51.283 21.5234 51.283 16.4961 51.283C12.3757 51.2241 8.42135 49.6483 5.38964 46.8572C2.35793 44.0661 0.461144 40.2556 0.0624904 36.1541C-0.336163 32.0526 0.791028 27.9479 3.22851 24.6253C5.66598 21.3026 9.24293 18.9951 13.2749 18.1438C13.439 18.0915 13.5906 18.0059 13.7202 17.8924C13.8498 17.7788 13.9544 17.6395 14.0278 17.4837C15.2814 14.0748 17.6206 11.1727 20.6855 9.2239C23.7505 7.27512 27.371 6.3881 30.9897 6.699C37.6107 7.249 42.3451 10.733 45.1001 16.805C45.1831 17.1122 45.3722 17.3797 45.6343 17.5603C45.8964 17.7409 46.2141 17.8227 46.5308 17.7908C50.7851 17.7924 54.8791 19.4164 57.9775 22.3318C61.076 25.2472 62.9456 29.2343 63.206 33.4807C63.4664 37.7271 62.0979 41.9132 59.3789 45.1853C56.6599 48.4574 52.7951 50.5697 48.5727 51.0911C45.8997 51.3751 43.1838 51.257 40.4868 51.281C37.5178 51.307 34.5491 51.2869 31.5801 51.2869L31.5791 51.283Z" fill="#003682"/>
<path d="M16.9315 39.9171C16.9754 39.597 17.0479 39.2811 17.1478 38.9738C17.6708 37.5998 18.2017 36.2272 18.7757 34.8742C18.9314 34.4677 19.1665 34.0962 19.4671 33.7814C19.7678 33.4666 20.1279 33.2149 20.5267 33.0407C20.9256 32.8664 21.3552 32.7729 21.7904 32.7663C22.2256 32.7596 22.6579 32.8397 23.0619 33.0016C23.4659 33.1636 23.8333 33.4042 24.1434 33.7096C24.4535 34.015 24.7 34.3794 24.868 34.7809C25.0361 35.1824 25.1225 35.6132 25.1224 36.0485C25.1224 36.4837 25.0357 36.9146 24.8675 37.3161C24.3425 38.7221 23.8035 40.1271 23.2015 41.5021C22.9063 42.185 22.3845 42.745 21.724 43.0875C21.0635 43.4301 20.3048 43.5341 19.5765 43.382C18.796 43.2126 18.1012 42.7708 17.6166 42.1359C17.1319 41.501 16.8891 40.7147 16.9315 39.9171Z" fill="#116EEE"/>
<path d="M14.827 63.2271C14.2782 63.2733 13.7262 63.1818 13.2216 62.961C12.7169 62.7402 12.2755 62.3969 11.9369 61.9625C11.5983 61.528 11.3734 61.016 11.2826 60.4727C11.1918 59.9294 11.238 59.3721 11.4169 58.8511C11.9359 57.3751 12.5167 55.9188 13.1547 54.4888C13.4997 53.7122 14.133 53.1001 14.9208 52.7813C15.7085 52.4625 16.5893 52.4618 17.3773 52.7798C18.1654 53.0979 18.7991 53.7096 19.1449 54.4859C19.4907 55.2622 19.5215 56.1424 19.2308 56.941C18.7038 58.413 18.126 59.8708 17.497 61.3028C17.2832 61.8457 16.9176 62.3157 16.4442 62.6568C15.9708 62.9979 15.4097 63.1961 14.827 63.2271Z" fill="#116EEE"/>
<path d="M32.3961 47.7731C32.3281 48.1416 32.2344 48.5048 32.1153 48.8601C31.6313 50.1454 31.1268 51.4228 30.6021 52.6921C30.4653 53.1216 30.242 53.5183 29.9459 53.8581C29.6498 54.1979 29.2871 54.4734 28.8804 54.6677C28.4737 54.862 28.0315 54.9712 27.5811 54.988C27.1307 55.0048 26.6814 54.9292 26.2613 54.7658C25.8412 54.6024 25.4594 54.3546 25.1387 54.0378C24.8181 53.721 24.5655 53.3421 24.397 52.924C24.2285 52.506 24.1474 52.0577 24.1588 51.6071C24.1701 51.1565 24.2736 50.7129 24.463 50.3039C24.994 48.9039 25.5263 47.504 26.1353 46.132C26.4338 45.4524 26.9575 44.8966 27.6182 44.5583C28.279 44.22 29.0363 44.1199 29.7623 44.2751C30.5443 44.452 31.238 44.9007 31.7203 45.5412C32.2026 46.1817 32.4421 46.9727 32.3961 47.7731Z" fill="#116EEE"/>
<path d="M44.4613 34.8021C44.9819 34.7694 45.5024 34.8618 45.9803 35.0711C46.4581 35.2803 46.8792 35.6005 47.2083 36.0052C47.5374 36.4099 47.7654 36.8873 47.8729 37.3978C47.9803 37.9082 47.9641 38.4372 47.826 38.9402C47.2967 40.5795 46.6622 42.1826 45.9261 43.74C45.5534 44.4542 44.9291 45.0051 44.1741 45.2859C43.4192 45.5668 42.587 45.5579 41.8382 45.261C41.0894 44.9641 40.4773 44.3999 40.1199 43.678C39.7626 42.9561 39.6852 42.1278 39.9031 41.3523C40.4451 39.7177 41.0794 38.1148 41.8031 36.5521C42.0355 36.0391 42.4088 35.6025 42.8792 35.2928C43.3496 34.9831 43.8981 34.8129 44.4613 34.8021Z" fill="#116EEE"/>
<path d="M19.3881 68.6662C19.4355 68.3459 19.5104 68.0305 19.6128 67.7234C20.1398 66.3494 20.679 64.9803 21.25 63.6233C21.3992 63.2133 21.6285 62.8371 21.9248 62.5168C22.221 62.1966 22.5784 61.9387 22.9755 61.758C23.3726 61.5774 23.8017 61.4775 24.2378 61.4646C24.6738 61.4516 25.108 61.526 25.5151 61.6828C25.9222 61.8397 26.2942 62.076 26.6088 62.3781C26.9235 62.6803 27.1749 63.0422 27.3481 63.4426C27.5214 63.843 27.6128 64.2739 27.6176 64.7102C27.6225 65.1464 27.5403 65.579 27.3759 65.9831C26.8499 67.4231 26.2889 68.8531 25.6699 70.2561C25.3782 70.9407 24.8562 71.5019 24.1943 71.842C23.5324 72.1821 22.7723 72.2799 22.0459 72.1184C21.2632 71.9559 20.5648 71.5183 20.0771 70.885C19.5894 70.2516 19.3452 69.4644 19.3881 68.6662Z" fill="#116EEE"/>
<path d="M41.8291 54.0813C41.7715 54.4276 41.6873 54.7689 41.5772 55.1023C41.0772 56.4202 40.5773 57.732 40.0293 59.031C39.8771 59.4434 39.6434 59.8214 39.3428 60.1423C39.0423 60.4632 38.6809 60.7207 38.2793 60.8996C37.8777 61.0786 37.444 61.1754 37.0044 61.1843C36.5649 61.1932 36.1283 61.1139 35.7198 60.9514C35.3113 60.7888 34.9393 60.546 34.626 60.2375C34.3128 59.929 34.0644 59.5609 33.8955 59.155C33.7267 58.749 33.641 58.3134 33.6431 57.8737C33.6453 57.4341 33.7355 56.9992 33.9082 56.5949C34.4402 55.1949 34.975 53.7853 35.583 52.4143C35.8912 51.7184 36.4365 51.1544 37.1216 50.823C37.8067 50.4915 38.5873 50.414 39.3243 50.6042C40.084 50.7968 40.7514 51.2505 41.2095 51.8864C41.6676 52.5223 41.887 53.2997 41.8291 54.0813Z" fill="#116EEE"/>
</g>
<defs>
<clipPath id="clip0">
<rect width="70" height="72.192" fill="white"/>
</clipPath>
</defs>
</svg>
