<svg width="63" height="65" viewBox="0 0 63 65" fill="none" xmlns="http://www.w3.org/2000/svg">
<path d="M31.975 43.7912C27.0417 43.7912 22.1081 43.7912 17.1747 43.7912C13.1365 43.7289 9.2626 42.1812 6.29288 39.444C3.32317 36.7068 1.46571 32.9716 1.07511 28.9518C0.684508 24.932 1.78801 20.9092 4.17521 17.6515C6.5624 14.3938 10.0663 12.1297 14.017 11.2912C14.178 11.2395 14.3264 11.1551 14.4535 11.0436C14.5806 10.9322 14.6835 10.7961 14.7558 10.6432C15.9856 7.30001 18.2802 4.45332 21.286 2.54167C24.2919 0.630027 27.8427 -0.240711 31.392 0.0631558C37.887 0.605156 42.5318 4.02222 45.2328 9.97722C45.3136 10.2783 45.4988 10.5408 45.7553 10.7179C46.0117 10.8951 46.3226 10.9751 46.6327 10.944C50.8023 10.9513 54.8125 12.547 57.8471 15.4064C60.8817 18.2659 62.7128 22.1743 62.9677 26.3361C63.2225 30.4979 61.8822 34.6004 59.2192 37.8088C56.5561 41.0171 52.7703 43.0902 48.6327 43.6061C46.0107 43.8841 43.3466 43.7691 40.7006 43.7931C37.7886 43.8201 34.8767 43.799 31.9657 43.799L31.975 43.7912Z" fill="#003682"/>
<path d="M17.6084 32.6388C17.6504 32.3251 17.7212 32.016 17.8188 31.715C18.3328 30.366 18.8534 29.021 19.4184 27.693C19.736 26.9005 20.3557 26.2666 21.1406 25.9308C21.9255 25.595 22.8115 25.5849 23.604 25.9025C24.3964 26.2201 25.0304 26.8392 25.3662 27.6241C25.702 28.4091 25.7121 29.2955 25.3945 30.088C24.8785 31.468 24.3507 32.8461 23.7597 34.1881C23.4702 34.8578 22.9585 35.407 22.311 35.7433C21.6636 36.0796 20.9199 36.1821 20.2055 36.0338C19.4403 35.868 18.7589 35.4355 18.2832 34.8136C17.8074 34.1917 17.5681 33.4208 17.6084 32.6388Z" fill="#116EEE"/>
<path d="M15.5408 55.5047C15.0025 55.5501 14.461 55.4606 13.9661 55.244C13.4712 55.0274 13.0383 54.6907 12.7063 54.2645C12.3744 53.8383 12.1541 53.3359 12.0652 52.8031C11.9764 52.2702 12.0218 51.7236 12.1976 51.2127C12.7056 49.7657 13.2807 48.3379 13.8977 46.9359C14.2399 46.1809 14.8602 45.587 15.6297 45.2786C16.3991 44.9703 17.2582 44.9709 18.0271 45.2806C18.7961 45.5903 19.4152 46.1852 19.7561 46.9408C20.0971 47.6963 20.1333 48.5544 19.8567 49.3358C19.3397 50.7808 18.7715 52.2106 18.1565 53.6146C17.9477 54.1473 17.5901 54.6091 17.1263 54.9442C16.6624 55.2793 16.1122 55.4738 15.5408 55.5047Z" fill="#116EEE"/>
<path d="M32.776 40.347C32.7106 40.7088 32.6191 41.0653 32.5021 41.4138C32.0288 42.6738 31.5337 43.9266 31.0177 45.1726C30.8767 45.585 30.6539 45.9648 30.3624 46.2888C30.071 46.6129 29.7171 46.8747 29.3219 47.0584C28.9267 47.2421 28.4983 47.3437 28.0626 47.3577C27.627 47.3717 27.193 47.2979 26.7868 47.1399C26.3806 46.9819 26.0105 46.7434 25.6989 46.4388C25.3872 46.1341 25.1405 45.7695 24.9733 45.367C24.8061 44.9645 24.7221 44.5323 24.7262 44.0965C24.7303 43.6606 24.822 43.2301 24.9967 42.8308C25.5177 41.4568 26.0408 40.0806 26.6378 38.7386C26.9306 38.0718 27.4447 37.5265 28.0929 37.1946C28.7411 36.8627 29.4838 36.7646 30.1959 36.9168C30.9621 37.0912 31.6416 37.5315 32.1139 38.1595C32.5862 38.7874 32.8209 39.5625 32.776 40.347Z" fill="#116EEE"/>
<path d="M44.6086 27.6237C45.1193 27.5917 45.6302 27.6821 46.0988 27.8874C46.5675 28.0927 46.9807 28.4069 47.3034 28.8039C47.6262 29.2009 47.8495 29.6694 47.9548 30.1701C48.0601 30.6708 48.0444 31.1894 47.9089 31.6828C47.3895 33.2877 46.7673 34.8578 46.0466 36.383C45.6806 37.0825 45.0689 37.6212 44.3288 37.8962C43.5888 38.1711 42.7732 38.1626 42.0393 37.8718C41.3053 37.5809 40.7046 37.0287 40.3537 36.3215C40.0028 35.6143 39.9265 34.802 40.1389 34.0417C40.6704 32.439 41.2916 30.8675 41.9997 29.3347C42.2289 28.8324 42.5957 28.4055 43.0573 28.1027C43.519 27.8 44.0566 27.6337 44.6086 27.6237Z" fill="#116EEE"/>
<path d="M20.0169 60.8388C20.0643 60.5251 20.138 60.2162 20.2376 59.915C20.7546 58.567 21.2835 57.224 21.8445 55.895C21.9944 55.4978 22.2215 55.1342 22.5125 54.8251C22.8035 54.516 23.1529 54.2677 23.5403 54.0942C23.9277 53.9206 24.3455 53.8253 24.7698 53.8139C25.1942 53.8025 25.6168 53.8753 26.013 54.0278C26.4091 54.1803 26.7712 54.4095 27.0784 54.7026C27.3856 54.9956 27.6315 55.3463 27.8025 55.7348C27.9735 56.1234 28.0659 56.5418 28.0745 56.9662C28.0831 57.3907 28.008 57.8128 27.8528 58.2079C27.3368 59.6219 26.7875 61.0248 26.1795 62.4008C25.893 63.0721 25.381 63.6225 24.7317 63.956C24.0825 64.2895 23.3373 64.3852 22.6248 64.227C21.857 64.067 21.1716 63.6375 20.6932 63.0161C20.2147 62.3946 19.9751 61.622 20.0169 60.8388Z" fill="#116EEE"/>
<path d="M42.0288 46.5307C41.9725 46.8698 41.8902 47.2041 41.7827 47.5307C41.2957 48.8237 40.7956 50.1097 40.2626 51.3847C40.1178 51.7951 39.8913 52.1722 39.5971 52.4931C39.303 52.8139 38.9471 53.0719 38.5507 53.2518C38.1544 53.4318 37.7256 53.5297 37.2905 53.5399C36.8553 53.5501 36.4229 53.4726 36.0185 53.3114C35.6141 53.1503 35.2463 52.9091 34.9374 52.6024C34.6286 52.2957 34.3851 51.93 34.2211 51.5268C34.0572 51.1235 33.9762 50.691 33.9833 50.2558C33.9905 49.8205 34.0855 49.3916 34.2626 48.994C34.7846 47.617 35.3107 46.2379 35.9067 44.8939C36.2091 44.2116 36.7436 43.6588 37.4155 43.3339C38.0874 43.009 38.853 42.9333 39.5756 43.12C40.3203 43.3095 40.9742 43.755 41.4228 44.3788C41.8714 45.0026 42.0861 45.7644 42.0288 46.5307Z" fill="#116EEE"/>
</svg>
