<svg width="91" height="92" viewBox="0 0 91 92" fill="none" xmlns="http://www.w3.org/2000/svg">
<path d="M23.8438 45.9884C23.8507 41.7801 25.1058 37.6686 27.4503 34.1739C29.7948 30.6792 33.1233 27.9585 37.0145 26.3561C40.9058 24.7536 45.185 24.3411 49.3105 25.1715C53.4361 26.0018 57.2227 28.0375 60.191 31.0206C63.1594 34.0037 65.1761 37.8002 65.9861 41.9298C66.796 46.0594 66.3627 50.3365 64.7411 54.2198C63.1195 58.1031 60.3824 61.418 56.8761 63.7452C53.3698 66.0724 49.2521 67.3074 45.0438 67.2936C39.4128 67.2619 34.023 65.0034 30.051 61.0118C26.0791 57.0202 23.8476 51.6195 23.8438 45.9884Z" fill="#FFC301"/>
<path d="M81.4241 42.5245C83.1241 42.5245 84.817 42.5125 86.513 42.5245C86.988 42.4944 87.4642 42.5615 87.9124 42.7217C88.3606 42.882 88.7714 43.1317 89.1197 43.4561C89.468 43.7805 89.7467 44.1727 89.9383 44.6084C90.1299 45.0442 90.2305 45.5143 90.2342 45.9903C90.2379 46.4663 90.1444 46.9379 89.9595 47.3765C89.7747 47.8151 89.5023 48.2113 89.159 48.5411C88.8158 48.8708 88.4089 49.1274 87.9632 49.2945C87.5175 49.4616 87.0424 49.536 86.567 49.5132C83.1083 49.5399 79.6493 49.5399 76.19 49.5132C75.2618 49.5073 74.3739 49.1328 73.7218 48.4722C73.0696 47.8116 72.7065 46.919 72.7125 45.9908C72.7184 45.0625 73.0929 44.1747 73.7535 43.5225C74.4141 42.8704 75.3067 42.5073 76.2349 42.5132C77.0999 42.5032 77.9639 42.5132 78.8289 42.5132L81.4241 42.5245Z" fill="#FFC301"/>
<path d="M48.615 9.82151C48.615 11.5505 48.632 13.2805 48.615 15.0105C48.6241 15.474 48.5409 15.9344 48.3701 16.3655C48.1994 16.7965 47.9445 17.1892 47.6204 17.5207C47.2963 17.8522 46.9095 18.1161 46.4824 18.2966C46.0554 18.4771 45.5967 18.5706 45.1331 18.572C44.6695 18.5734 44.2102 18.4823 43.7821 18.3044C43.354 18.1265 42.9656 17.8654 42.6396 17.5359C42.3135 17.2063 42.0563 16.815 41.883 16.385C41.7096 15.955 41.6236 15.495 41.6299 15.0315C41.6006 11.5395 41.6006 8.04678 41.6299 4.55345C41.6067 4.07674 41.6813 3.60038 41.849 3.15354C42.0167 2.70671 42.2741 2.29853 42.6053 1.95481C42.9364 1.6111 43.3343 1.33878 43.7746 1.15452C44.2148 0.97026 44.6881 0.878129 45.1653 0.883525C45.6426 0.888921 46.1138 0.992091 46.5498 1.18626C46.9858 1.38043 47.3774 1.66132 47.7007 2.01243C48.024 2.36355 48.2719 2.77725 48.4295 3.22776C48.587 3.67827 48.6509 4.15648 48.617 4.63255C48.628 6.36155 48.616 8.09151 48.615 9.82151Z" fill="#FFC301"/>
<path d="M8.91796 42.5233C10.647 42.5233 12.3759 42.5073 14.1059 42.5233C14.5647 42.5204 15.0194 42.6077 15.4443 42.7806C15.8692 42.9535 16.2559 43.2083 16.5823 43.5306C16.9087 43.8529 17.1685 44.2363 17.3467 44.659C17.5249 45.0817 17.6181 45.5353 17.621 45.994C17.6239 46.4527 17.5364 46.9075 17.3635 47.3324C17.1906 47.7572 16.9357 48.1441 16.6134 48.4705C16.2911 48.7969 15.9077 49.0565 15.485 49.2347C15.0623 49.4129 14.6086 49.5062 14.1499 49.5091C10.6579 49.5411 7.16625 49.5411 3.67492 49.5091C3.1988 49.5329 2.72286 49.459 2.27624 49.2923C1.82961 49.1256 1.42172 48.8698 1.07763 48.5399C0.733536 48.2099 0.460545 47.8131 0.275259 47.3739C0.0899728 46.9346 -0.00370786 46.4619 0.000112302 45.9852C0.00393247 45.5085 0.105174 45.0376 0.297476 44.6014C0.489777 44.1652 0.769063 43.7729 1.1184 43.4486C1.46773 43.1242 1.87973 42.8747 2.32897 42.7152C2.77821 42.5557 3.25527 42.4899 3.73095 42.5213C5.45895 42.5083 7.18896 42.5233 8.91796 42.5233Z" fill="#FFC301"/>
<path d="M48.6149 82.3482C48.6149 84.0482 48.6289 85.7478 48.6149 87.4478C48.6293 87.913 48.5506 88.3767 48.3835 88.8111C48.2163 89.2454 47.964 89.6416 47.6415 89.9771C47.319 90.3126 46.9327 90.581 46.5053 90.7652C46.0779 90.9494 45.6179 91.0464 45.1525 91.0503C44.6871 91.0543 44.2257 90.9645 43.7952 90.7877C43.3647 90.6108 42.9738 90.35 42.6455 90.0201C42.3173 89.6901 42.0583 89.2982 41.8837 88.8668C41.7091 88.4353 41.6225 87.9737 41.6289 87.5084C41.5989 84.009 41.5989 80.509 41.6289 77.0084C41.6341 76.0817 42.0071 75.1951 42.6661 74.5435C43.325 73.8919 44.2158 73.5286 45.1425 73.5337C46.0692 73.5389 46.9557 73.9119 47.6073 74.5709C48.2589 75.2298 48.622 76.1208 48.6169 77.0474C48.6319 78.8134 48.6149 80.5812 48.6149 82.3482Z" fill="#FFC301"/>
<path d="M65.3699 29.5498C64.6755 29.5183 64.0031 29.2977 63.4254 28.9111C62.8477 28.5245 62.387 27.9868 62.0931 27.3569C61.7717 26.7608 61.6488 26.0779 61.7425 25.4072C61.8362 24.7365 62.1416 24.1131 62.6141 23.6279C65.1834 20.9679 67.7981 18.3508 70.4581 15.7768C71.1182 15.2083 71.968 14.9089 72.8387 14.938C73.7094 14.967 74.5375 15.3223 75.1583 15.9336C75.7791 16.5448 76.1472 17.3671 76.1898 18.2373C76.2323 19.1075 75.9462 19.9619 75.388 20.6308C72.809 23.3308 70.1589 25.9599 67.4659 28.5429C66.8241 28.9859 66.1169 29.3255 65.3699 29.5498Z" fill="#FFC301"/>
<path d="M61.585 66.2122C61.628 65.5353 61.8504 64.882 62.2295 64.3196C62.6086 63.7572 63.1306 63.3058 63.7419 63.012C64.3331 62.6815 65.0147 62.5488 65.6865 62.6341C66.3584 62.7194 66.9853 63.0179 67.4751 63.4856C70.1611 66.0766 72.808 68.7125 75.386 71.4095C75.9403 72.0709 76.228 72.9154 76.1926 73.7776C76.1573 74.6399 75.8014 75.4587 75.1948 76.0726C74.5882 76.6864 73.7744 77.0514 72.9126 77.097C72.0508 77.1426 71.2032 76.865 70.5352 76.3186C67.8112 73.7186 65.1601 71.0416 62.5571 68.3186C62.1217 67.6733 61.7932 66.9623 61.585 66.2122Z" fill="#FFC301"/>
<path d="M24.8791 62.4912C25.5558 62.5239 26.2116 62.7355 26.7792 63.1055C27.3468 63.4754 27.8058 63.9898 28.109 64.5957C28.4509 65.1816 28.5943 65.863 28.5181 66.5371C28.4419 67.2112 28.1501 67.8421 27.6861 68.3369C25.0861 71.0559 22.421 73.7273 19.694 76.3223C19.0252 76.8693 18.1762 77.1462 17.3134 77.0996C16.4506 77.053 15.6363 76.6862 15.0303 76.0703C14.4243 75.4544 14.0702 74.6339 14.0376 73.7705C14.005 72.9071 14.2962 72.0632 14.854 71.4033C17.4374 68.7087 20.0791 66.0712 22.7791 63.4912C23.4228 63.0507 24.1313 62.7133 24.8791 62.4912Z" fill="#FFC301"/>
<path d="M28.6488 25.7651C28.6141 26.4409 28.4017 27.0958 28.0329 27.6631C27.6642 28.2304 27.1522 28.69 26.5488 28.9961C25.9646 29.3396 25.2849 29.4848 24.6114 29.4097C23.9379 29.3345 23.3069 29.0429 22.8128 28.5791C20.1162 25.9998 17.4761 23.3622 14.8928 20.6655C14.347 19.9969 14.0701 19.1485 14.1163 18.2866C14.1625 17.4247 14.5283 16.6114 15.1424 16.0049C15.7565 15.3984 16.5747 15.0427 17.4371 15.0073C18.2995 14.9719 19.144 15.2593 19.8057 15.8135C22.4787 18.3695 25.0838 20.9994 27.6418 23.6694C28.0835 24.312 28.4232 25.0187 28.6488 25.7651Z" fill="#FFC301"/>
</svg>
