<svg id="Logo_Emploi_Lausanne" data-name="Logo Emploi Lausanne" xmlns="http://www.w3.org/2000/svg" width="140.107" height="47.581" viewBox="0 0 140.107 47.581">
  <path id="Tracé_17" data-name="Tracé 17" d="M339.191,270.57H335.3v-8.6q0-3.314-2.708-3.314a3.1,3.1,0,0,0-2.6,1.116,4.4,4.4,0,0,0-.876,2.8v8h-3.888v-15.3h3.7v2.04a7.247,7.247,0,0,1,1.991-1.705,5.374,5.374,0,0,1,2.725-.654,5.45,5.45,0,0,1,2.757.685,4.973,4.973,0,0,1,1.9,1.96,9.637,9.637,0,0,1,2.263-1.879,5.776,5.776,0,0,1,3.028-.766,6.087,6.087,0,0,1,2.279.415,4.992,4.992,0,0,1,1.8,1.227,5.524,5.524,0,0,1,1.179,2.007,8.439,8.439,0,0,1,.414,2.757v9.209h-3.888v-8.6a3.66,3.66,0,0,0-.733-2.485,2.661,2.661,0,0,0-2.1-.829A2.925,2.925,0,0,0,340,259.768a4.639,4.639,0,0,0-.812,2.8Z" transform="translate(-294.824 -247.307)" fill="#ffffff"/>
  <path id="Tracé_18" data-name="Tracé 18" d="M350.383,262.923a4.522,4.522,0,0,0,1.1,3.234,3.781,3.781,0,0,0,2.884,1.164,3.551,3.551,0,0,0,2.806-1.2,4.673,4.673,0,0,0,1.052-3.2,5.19,5.19,0,0,0-.287-1.737,4.319,4.319,0,0,0-.8-1.4,3.672,3.672,0,0,0-1.211-.924,3.565,3.565,0,0,0-1.562-.335,3.784,3.784,0,0,0-2.884,1.162,4.525,4.525,0,0,0-1.1,3.235m11.887,0a9.233,9.233,0,0,1-.542,3.218,7.625,7.625,0,0,1-1.5,2.518,6.877,6.877,0,0,1-2.247,1.641,6.626,6.626,0,0,1-2.789.589,6.122,6.122,0,0,1-4.685-1.944v7.469h-3.886v-21.14h3.792v1.849a7.122,7.122,0,0,1,2.007-1.546,5.947,5.947,0,0,1,2.806-.622,6.555,6.555,0,0,1,2.756.59,6.86,6.86,0,0,1,2.247,1.641,7.631,7.631,0,0,1,1.5,2.517,9.245,9.245,0,0,1,.542,3.219" transform="translate(-290.179 -247.307)" fill="#ffffff"/>
  <rect id="Rectangle_5" data-name="Rectangle 5" width="3.888" height="22.058" transform="translate(73.684 1.205)" fill="#ffffff"/>
  <path id="Tracé_19" data-name="Tracé 19" d="M369.177,262.923a4.5,4.5,0,0,0,1.116,3.2,3.781,3.781,0,0,0,2.9,1.2,3.687,3.687,0,0,0,1.577-.335,3.991,3.991,0,0,0,1.26-.924,4.244,4.244,0,0,0,.843-1.4,4.93,4.93,0,0,0,.3-1.737,4.508,4.508,0,0,0-1.115-3.2,4.077,4.077,0,0,0-5.768,0,4.5,4.5,0,0,0-1.116,3.2m-3.888,0a8.347,8.347,0,0,1,.606-3.219,7.633,7.633,0,0,1,1.657-2.517,7.517,7.517,0,0,1,2.486-1.641,8.137,8.137,0,0,1,3.123-.59,8.336,8.336,0,0,1,3.171.59,7.317,7.317,0,0,1,4.143,4.158,8.579,8.579,0,0,1,.589,3.219,8.278,8.278,0,0,1-.589,3.139,7.828,7.828,0,0,1-1.641,2.533,7.45,7.45,0,0,1-2.5,1.689,8.159,8.159,0,0,1-3.171.6,8.343,8.343,0,0,1-3.123-.573,7.313,7.313,0,0,1-2.486-1.625,7.635,7.635,0,0,1-1.657-2.517,8.429,8.429,0,0,1-.606-3.251" transform="translate(-286.125 -247.307)" fill="#ffffff"/>
  <path id="Tracé_20" data-name="Tracé 20" d="M383.536,271.935H379.65v-15.3h3.886Zm-4.4-20.777a2.4,2.4,0,1,1,.7,1.784,2.416,2.416,0,0,1-.7-1.784" transform="translate(-283.117 -248.672)" fill="#ffffff"/>
  <rect id="Rectangle_6" data-name="Rectangle 6" width="3.888" height="22.058" transform="translate(14.846 25.203)" fill="#ffffff"/>
  <path id="Tracé_21" data-name="Tracé 21" d="M323,287.514a3.167,3.167,0,0,0,2.389-.924,3.918,3.918,0,0,0,.957-2.678h-3.379a2.785,2.785,0,0,0-1.736.478,1.526,1.526,0,0,0-.622,1.275,1.627,1.627,0,0,0,.638,1.339,2.727,2.727,0,0,0,1.753.51m.733-12.842a6.362,6.362,0,0,1,4.652,1.625,6.222,6.222,0,0,1,1.658,4.653v4.684a18.5,18.5,0,0,0,.16,2.629q.159,1.1.382,2.024h-3.7c-.085-.3-.16-.579-.223-.845a8.218,8.218,0,0,1-.159-.876,6.381,6.381,0,0,1-1.865,1.5,5.5,5.5,0,0,1-2.565.542,5.954,5.954,0,0,1-2.087-.351,5.181,5.181,0,0,1-1.642-.972,4.286,4.286,0,0,1-1.083-1.481,4.59,4.59,0,0,1-.382-1.881,4.2,4.2,0,0,1,1.529-3.442,6.178,6.178,0,0,1,4.017-1.243h3.919v-.7a2.635,2.635,0,0,0-.685-1.9,2.543,2.543,0,0,0-1.928-.717,2.578,2.578,0,0,0-1.833.542,2.12,2.12,0,0,0-.652,1.276h-3.761a4.373,4.373,0,0,1,.447-1.96,5.164,5.164,0,0,1,1.243-1.61,5.755,5.755,0,0,1,1.96-1.1,7.988,7.988,0,0,1,2.6-.4" transform="translate(-296.638 -243.025)" fill="#ffffff"/>
  <path id="Tracé_22" data-name="Tracé 22" d="M329.473,274.934h3.888v8.508q0,3.411,2.837,3.409a3.1,3.1,0,0,0,2.629-1.147,4.6,4.6,0,0,0,.875-2.869v-7.9h3.889v15.3h-3.7v-2.04a8.238,8.238,0,0,1-1.992,1.658,6.04,6.04,0,0,1-6.948-.925,7.082,7.082,0,0,1-1.481-4.908Z" transform="translate(-293.903 -242.968)" fill="#ffffff"/>
  <path id="Tracé_23" data-name="Tracé 23" d="M349.27,287.387a3.132,3.132,0,0,0,1.832-.445,1.358,1.358,0,0,0,.622-1.148q0-1.338-1.944-1.53l-2.008-.191a6.542,6.542,0,0,1-3.648-1.354,3.865,3.865,0,0,1-1.355-3.139,4.292,4.292,0,0,1,.445-1.944,4.983,4.983,0,0,1,1.227-1.562,5.568,5.568,0,0,1,1.865-1.036,7.3,7.3,0,0,1,2.358-.366,7.562,7.562,0,0,1,2.55.4,6.185,6.185,0,0,1,1.928,1.083,5.532,5.532,0,0,1,1.306,1.593,5.911,5.911,0,0,1,.654,1.928h-3.888a2.476,2.476,0,0,0-.8-1.274,2.578,2.578,0,0,0-1.688-.478,2.758,2.758,0,0,0-1.786.478,1.368,1.368,0,0,0-.573,1.052,1.323,1.323,0,0,0,.4.973,2.031,2.031,0,0,0,1.322.461l2.072.159a11.087,11.087,0,0,1,1.53.239,5.763,5.763,0,0,1,1.274.431,4.065,4.065,0,0,1,1.737,1.562,4.762,4.762,0,0,1,.621,2.517,4.322,4.322,0,0,1-1.593,3.474,6.791,6.791,0,0,1-4.492,1.339,7.556,7.556,0,0,1-4.844-1.4,5.37,5.37,0,0,1-2.04-3.633h3.856a2.02,2.02,0,0,0,.925,1.306,3.814,3.814,0,0,0,2.135.51" transform="translate(-291.106 -243.025)" fill="#ffffff"/>
  <path id="Tracé_24" data-name="Tracé 24" d="M359.758,287.514a3.169,3.169,0,0,0,2.389-.924,3.931,3.931,0,0,0,.957-2.678h-3.379a2.792,2.792,0,0,0-1.737.478,1.528,1.528,0,0,0-.621,1.275A1.629,1.629,0,0,0,358,287a2.728,2.728,0,0,0,1.754.51m.733-12.842a6.362,6.362,0,0,1,4.652,1.625,6.223,6.223,0,0,1,1.658,4.653v4.684a18.52,18.52,0,0,0,.159,2.629q.159,1.1.382,2.024h-3.7c-.085-.3-.159-.579-.224-.845a8.853,8.853,0,0,1-.159-.876,6.376,6.376,0,0,1-1.863,1.5,5.5,5.5,0,0,1-2.566.542,5.951,5.951,0,0,1-2.086-.351,5.167,5.167,0,0,1-1.642-.972,4.269,4.269,0,0,1-1.083-1.481,4.57,4.57,0,0,1-.382-1.881,4.191,4.191,0,0,1,1.529-3.442,6.177,6.177,0,0,1,4.016-1.243H363.1v-.7a2.635,2.635,0,0,0-.685-1.9,2.547,2.547,0,0,0-1.928-.717,2.573,2.573,0,0,0-1.833.542,2.129,2.129,0,0,0-.654,1.276h-3.76a4.373,4.373,0,0,1,.447-1.96,5.147,5.147,0,0,1,1.243-1.61,5.757,5.757,0,0,1,1.96-1.1,7.982,7.982,0,0,1,2.6-.4" transform="translate(-288.655 -243.025)" fill="#ffffff"/>
  <path id="Tracé_25" data-name="Tracé 25" d="M380.6,290.287h-3.888v-8.509q0-3.409-2.836-3.409a3.194,3.194,0,0,0-2.662,1.147,4.482,4.482,0,0,0-.908,2.869v7.9h-3.888v-15.3h3.7v2.039a7.607,7.607,0,0,1,2.04-1.705,5.53,5.53,0,0,1,2.773-.652,5.284,5.284,0,0,1,4.11,1.721,7.1,7.1,0,0,1,1.562,4.939Z" transform="translate(-285.88 -243.025)" fill="#ffffff"/>
  <path id="Tracé_26" data-name="Tracé 26" d="M393.635,290.287h-3.889v-8.509q0-3.409-2.836-3.409a3.19,3.19,0,0,0-2.661,1.147,4.482,4.482,0,0,0-.908,2.869v7.9h-3.888v-15.3h3.7v2.039a7.583,7.583,0,0,1,2.039-1.705,5.533,5.533,0,0,1,2.773-.652,5.288,5.288,0,0,1,4.112,1.721,7.1,7.1,0,0,1,1.562,4.939Z" transform="translate(-283.048 -243.025)" fill="#ffffff"/>
  <path id="Tracé_27" data-name="Tracé 27" d="M328.815,259.559a7.243,7.243,0,0,0-1.481-2.383,6.9,6.9,0,0,0-2.31-1.606,7.5,7.5,0,0,0-3.013-.588,7.68,7.68,0,0,0-5.513,2.274,8.1,8.1,0,0,0-1.674,2.512,7.534,7.534,0,0,0-.483,1.619l-14.091.172v2.748l14.02-.17a8.436,8.436,0,0,0,.508,2.152,6.786,6.786,0,0,0,4.1,4.055,9,9,0,0,0,3.17.54,8.382,8.382,0,0,0,2.534-.366,6.789,6.789,0,0,0,2.04-1.02,6.658,6.658,0,0,0,1.481-1.513,6.2,6.2,0,0,0,.892-1.849h-4.142a2.73,2.73,0,0,1-1.02,1.036,3.612,3.612,0,0,1-1.849.4,4.031,4.031,0,0,1-2.789-.953,3.711,3.711,0,0,1-1.227-2.479h11.314a7.553,7.553,0,0,0,.063-.938v-.746A7.988,7.988,0,0,0,328.815,259.559Zm-10.787,1.828a3.7,3.7,0,0,1,1.29-2.151,3.928,3.928,0,0,1,2.629-.876,3.378,3.378,0,0,1,3.569,3.027Z" transform="translate(-300.25 -247.302)" fill="#ffffff"/>
  <path id="Tracé_28" data-name="Tracé 28" d="M407.352,281.1a7.847,7.847,0,0,0-.458-1.827,7.238,7.238,0,0,0-1.481-2.385,6.906,6.906,0,0,0-2.311-1.605,7.488,7.488,0,0,0-3.011-.588,7.685,7.685,0,0,0-5.514,2.274,8.1,8.1,0,0,0-1.672,2.512,7.949,7.949,0,0,0-.622,3.165,9.228,9.228,0,0,0,.575,3.356,6.788,6.788,0,0,0,4.095,4.054,9.014,9.014,0,0,0,3.171.542,8.431,8.431,0,0,0,2.534-.366,6.8,6.8,0,0,0,2.039-1.02,6.7,6.7,0,0,0,1.483-1.514,6.208,6.208,0,0,0,.892-1.848h-4.143a2.73,2.73,0,0,1-1.02,1.036,3.619,3.619,0,0,1-1.848.4,4.023,4.023,0,0,1-2.789-.954,3.711,3.711,0,0,1-1.227-2.479h11.314l13.013.172v-2.75Zm-11.246,0a3.71,3.71,0,0,1,1.291-2.151,3.928,3.928,0,0,1,2.629-.876A3.378,3.378,0,0,1,403.6,281.1Z" transform="translate(-280.262 -243.02)" fill="#ffffff"/>
</svg>
