<svg width="93" height="35" viewBox="0 0 93 35" fill="none" xmlns="http://www.w3.org/2000/svg">
<g clip-path="url(#clip0)">
<path d="M12.3519 12.0988H7.87793V25.819C7.87793 26.0046 7.80425 26.1828 7.67297 26.3141C7.5417 26.4454 7.36363 26.5187 7.17798 26.5187H3.99792C3.81227 26.5187 3.63421 26.4454 3.50293 26.3141C3.37165 26.1828 3.29797 26.0046 3.29797 25.819V12.0988H0.687988C0.502337 12.0988 0.324269 12.025 0.192993 11.8937C0.0617177 11.7624 -0.012085 11.5847 -0.012085 11.3991V8.922C-0.012085 8.73635 0.0617177 8.55816 0.192993 8.42688C0.324269 8.29561 0.502337 8.2218 0.687988 8.2218H3.29797V6.35901C3.29797 2.66601 5.68992 -0.00817582 9.34692 -0.00817582C10.2233 -0.0228086 11.099 0.0501687 11.9609 0.209109C12.1171 0.242883 12.257 0.32901 12.3574 0.45325C12.4578 0.577489 12.5127 0.731984 12.5129 0.891727V3.36487C12.5121 3.4629 12.4908 3.55981 12.4502 3.64905C12.4096 3.7383 12.3508 3.81789 12.2775 3.88294C12.2041 3.94799 12.1179 3.99687 12.0244 4.02649C11.931 4.05611 11.8324 4.06574 11.735 4.05481C11.2462 3.9963 10.7543 3.96672 10.262 3.96595C8.74996 3.96595 7.87097 4.77568 7.87097 6.49768V8.2218H12.345C12.5306 8.2218 12.7087 8.29561 12.84 8.42688C12.9712 8.55816 13.0449 8.73635 13.0449 8.922V11.3991C13.0449 11.5835 12.9722 11.7602 12.8424 11.8912C12.7126 12.0223 12.5364 12.0969 12.3519 12.0988Z" fill="white"/>
<path d="M27.6439 8.56295V11.6279C27.6432 11.7309 27.6199 11.8324 27.5754 11.9253C27.531 12.0181 27.4666 12.1004 27.3868 12.1655C27.3071 12.2306 27.2139 12.2772 27.114 12.3022C27.0141 12.3272 26.91 12.3299 26.809 12.31C26.3078 12.2106 25.7979 12.1629 25.287 12.1679C22.687 12.1679 20.9609 14.1029 20.9609 17.6889V25.8208C20.9609 26.0064 20.8873 26.1846 20.756 26.3159C20.6247 26.4472 20.4466 26.521 20.261 26.521H17.0809C16.8953 26.521 16.7173 26.4472 16.5861 26.3159C16.4548 26.1846 16.381 26.0064 16.381 25.8208V8.92086C16.381 8.73521 16.4548 8.55751 16.5861 8.42623C16.7173 8.29496 16.8953 8.22115 17.0809 8.22115H20.261C20.4466 8.22115 20.6247 8.29496 20.756 8.42623C20.8873 8.55751 20.9609 8.73521 20.9609 8.92086V10.9682C21.3606 10.013 22.0359 9.19831 22.9004 8.62838C23.7649 8.05845 24.7795 7.75891 25.8149 7.76803C26.254 7.75365 26.6932 7.79232 27.1229 7.88375C27.2734 7.92194 27.4067 8.01008 27.5012 8.13326C27.5957 8.25645 27.646 8.4077 27.6439 8.56295Z" fill="white"/>
<path d="M50.4689 17.375C50.4689 22.896 46.6689 27.0473 41.2189 27.0473C40.0808 27.0998 38.9451 26.9001 37.8931 26.4624C36.8412 26.0247 35.899 25.3595 35.134 24.5151L35.166 33.3833C35.166 33.5689 35.0923 33.7471 34.961 33.8784C34.8297 34.0097 34.6517 34.083 34.466 34.083H31.289C31.1033 34.083 30.9253 34.0097 30.794 33.8784C30.6627 33.7471 30.5889 33.5689 30.5889 33.3833V8.92527C30.5889 8.73962 30.6627 8.56143 30.794 8.43015C30.9253 8.29887 31.1033 8.22507 31.289 8.22507H34.4689C34.6546 8.22507 34.8327 8.29887 34.9639 8.43015C35.0952 8.56143 35.169 8.73962 35.169 8.92527V10.125C35.9406 9.28666 36.8831 8.62364 37.9328 8.18064C38.9825 7.73763 40.115 7.52508 41.254 7.5571C46.67 7.5621 50.4689 11.782 50.4689 17.375ZM45.721 17.375C45.7633 16.6468 45.6564 15.9177 45.4068 15.2324C45.1572 14.5471 44.7703 13.9201 44.2697 13.3896C43.7691 12.8592 43.1655 12.4368 42.4958 12.1479C41.8261 11.8591 41.1043 11.7099 40.3749 11.7099C39.6456 11.7099 38.9239 11.8591 38.2542 12.1479C37.5845 12.4368 36.9809 12.8592 36.4803 13.3896C35.9797 13.9201 35.5928 14.5471 35.3432 15.2324C35.0936 15.9177 34.9867 16.6468 35.029 17.375C35.005 18.0921 35.1254 18.8069 35.3832 19.4765C35.6411 20.1461 36.0311 20.7571 36.5298 21.2729C37.0286 21.7887 37.6261 22.1989 38.2867 22.479C38.9473 22.7591 39.6574 22.9033 40.3749 22.9033C41.0925 22.9033 41.8027 22.7591 42.4633 22.479C43.1239 22.1989 43.7214 21.7887 44.2202 21.2729C44.7189 20.7571 45.1088 20.1461 45.3666 19.4765C45.6245 18.8069 45.745 18.0921 45.721 17.375Z" fill="white"/>
<path d="M64.7399 8.56294V11.6289C64.739 11.7316 64.7155 11.8331 64.6711 11.9257C64.6266 12.0184 64.5625 12.1 64.4828 12.165C64.4032 12.23 64.3103 12.2767 64.2106 12.3017C64.111 12.3267 64.0068 12.3297 63.9059 12.31C63.4048 12.2105 62.8948 12.1629 62.384 12.1679C59.784 12.1679 58.058 14.1029 58.058 17.6889V25.8208C58.058 26.0064 57.9842 26.1846 57.853 26.3159C57.7217 26.4471 57.5437 26.5209 57.3581 26.5209H54.1779C53.9923 26.5209 53.8143 26.4471 53.683 26.3159C53.5518 26.1846 53.478 26.0064 53.478 25.8208V8.92085C53.478 8.7352 53.5518 8.5575 53.683 8.42622C53.8143 8.29495 53.9923 8.22114 54.1779 8.22114H57.3581C57.5437 8.22114 57.7217 8.29495 57.853 8.42622C57.9842 8.5575 58.058 8.7352 58.058 8.92085V10.9682C58.4577 10.013 59.1327 9.1983 59.9973 8.62837C60.8618 8.05844 61.8766 7.7589 62.912 7.76802C63.3511 7.75367 63.7902 7.79234 64.2199 7.88374C64.3702 7.92212 64.5033 8.01009 64.5976 8.13325C64.6919 8.25642 64.7421 8.40782 64.7399 8.56294Z" fill="white"/>
<path d="M85.3701 17.304C85.3701 23.004 81.1141 27.0461 75.3811 27.0461C69.6481 27.0461 65.3921 23.002 65.3921 17.304C65.3921 11.606 69.6481 7.56079 75.3811 7.56079C81.1141 7.56079 85.3701 11.606 85.3701 17.304ZM70.1411 17.304C70.1411 20.716 72.3921 22.8611 75.3811 22.8611C78.3701 22.8611 80.6211 20.716 80.6211 17.304C80.6211 13.892 78.3701 11.7468 75.3811 11.7468C72.3571 11.7468 70.1411 13.893 70.1411 17.304Z" fill="white"/>
<path d="M92.0219 23.8282C92.0359 24.3769 91.886 24.9169 91.5913 25.3799C91.2965 25.843 90.8704 26.2077 90.3674 26.4273C89.8644 26.6469 89.3072 26.7119 88.7673 26.6133C88.2274 26.5148 87.7291 26.2572 87.3361 25.8741C86.9432 25.4909 86.6734 24.9992 86.5612 24.462C86.4491 23.9247 86.4994 23.3664 86.7063 22.858C86.9131 22.3496 87.267 21.9143 87.7224 21.608C88.1778 21.3016 88.714 21.1377 89.2629 21.1378C89.6239 21.1208 89.9847 21.1784 90.3225 21.3067C90.6603 21.435 90.968 21.6316 91.2268 21.8838C91.4855 22.1361 91.6896 22.4385 91.8264 22.773C91.9632 23.1075 92.0297 23.4669 92.0219 23.8282Z" fill="white"/>
</g>
<defs>
<clipPath id="clip0">
<rect width="92.021" height="34.081" fill="white"/>
</clipPath>
</defs>
</svg>
